<svg id="Group_22" data-name="Group 22" xmlns="http://www.w3.org/2000/svg" width="103.224" height="38" viewBox="0 0 103.224 38">
  <path id="Path_16" data-name="Path 16" d="M28.661,19.462a3.562,3.562,0,1,1-3.423,2.644L17.522,17.77a3.589,3.589,0,0,1-2.6,1.116,3.509,3.509,0,0,1-1.547-.355l-4.843,5.8a4.815,4.815,0,1,1-1.369-1.148l4.843-5.807a3.587,3.587,0,0,1,.285-4.545L9.509,8.507a3.144,3.144,0,0,1-.951.152A3.11,3.11,0,1,1,10.98,7.48l2.815,4.381a3.567,3.567,0,0,1,2.91.292l5.471-5.661a4.221,4.221,0,1,1,1.287,1.236L17.992,13.4a3.6,3.6,0,0,1,.539,1.883,3.4,3.4,0,0,1-.127.926l7.709,4.336a3.551,3.551,0,0,1,2.548-1.078ZM1.788,27.386a3.024,3.024,0,1,0,3.024-3.024A3.028,3.028,0,0,0,1.788,27.386ZM8.552,4.266A1.306,1.306,0,1,0,9.858,5.572,1.308,1.308,0,0,0,8.552,4.266Zm6.371,9.2a1.813,1.813,0,1,0,1.813,1.813A1.813,1.813,0,0,0,14.923,13.471ZM28.04,4.178a2.39,2.39,0,1,0-2.39,2.39A2.392,2.392,0,0,0,28.04,4.178Zm.621,20.584A1.756,1.756,0,1,0,26.9,23.006,1.756,1.756,0,0,0,28.661,24.762Z" transform="translate(32.205 33.882) rotate(180)" fill="#fff" fill-rule="evenodd"/>
  <text id="Nitrx" transform="translate(35.224 30)" fill="#fff" font-size="29" font-family="Futura-Medium, Futura" font-weight="500"><tspan x="0" y="0">Nitrx</tspan></text>
</svg>
